<?xml version="1.0" encoding="UTF-8"?>
<!DOCTYPE svg PUBLIC "-//W3C//DTD SVG 1.1//EN" "http://www.w3.org/Graphics/SVG/1.1/DTD/svg11.dtd">
<!-- Creator: CorelDRAW 2021 (64-Bit) -->
<svg xmlns="http://www.w3.org/2000/svg" xml:space="preserve" width="84.4667mm" height="20.4755mm" version="1.1" style="shape-rendering:geometricPrecision; text-rendering:geometricPrecision; image-rendering:optimizeQuality; fill-rule:evenodd; clip-rule:evenodd"
viewBox="0 0 564.95 136.95"
 xmlns:xlink="http://www.w3.org/1999/xlink"
 xmlns:xodm="http://www.corel.com/coreldraw/odm/2003">
 <defs>
  <style type="text/css">
   <![CDATA[
    .fil2 {fill:#A16AD4}
    .fil1 {fill:white}
    .fil0 {fill:white;fill-rule:nonzero}
   ]]>
  </style>
 </defs>
 <g id="Layer_x0020_1">
  <metadata id="CorelCorpID_0Corel-Layer"/>
  <path class="fil0" d="M99.02 136.95l16.05 0 0 -43.37c0,-14.22 7.75,-21.54 19.57,-21.54 11.69,0 19.43,7.32 19.43,21.54l0 43.37 15.91 0 0 -45.76c0,-21.69 -13.52,-33.09 -30.84,-33.09 -10,0 -14.58,0.33 -24.08,0.65l0 -26 -16.05 0 0 104.2z"/>
  <path class="fil0" d="M173.98 96.54c0,23.94 16.19,40.41 36.33,40.41 12.95,0 22.25,-6.2 27.18,-12.81l0 11.55 16.19 0 0 -66.38 -16.19 0.06c-4.79,-6.34 -13.8,-12.53 -26.9,-12.53 -20.42,0 -36.61,15.77 -36.61,39.71zm63.51 0.28c0,16.76 -11.41,26.19 -23.52,26.19 -11.97,0 -23.52,-9.72 -23.52,-26.47 0,-16.76 11.55,-25.77 23.52,-25.77 12.11,0 23.52,9.43 23.52,26.05z"/>
  <path class="fil0" d="M274.54 96.11c0,-16.47 7.32,-21.4 19.15,-21.4l4.08 0 0 -16.62c-5.24,0 -23.23,12.54 -23.23,12.53l-16.05 0.2 0 66.13 16.05 0 0 -40.84z"/>
  <path class="fil0" d="M391.36 84.15l0 -31.96 17.74 0c12.53,0 18.16,5.91 18.16,16.05 0,9.86 -5.63,15.91 -18.16,15.91l-17.74 0zm52.38 -15.91c0,-15.91 -11.41,-29.15 -34.64,-29.15l-33.79 0 0 97.86 16.05 0 0 -39.71 17.74 0c25.49,0 34.64,-15.07 34.64,-29.01z"/>
  <path class="fil1" d="M342.88 135.91l-4.86 -12.92c-1.5,0.29 -3.13,0.44 -4.91,0.44 -11.83,0 -20.98,-7.74 -22.11,-20.56l59.28 0c0.42,-2.67 0.56,-5.21 0.56,-7.89 0,-22.81 -15.63,-38.16 -37.74,-38.16 -22.95,0 -38.72,15.63 -38.72,39.99 0,24.36 16.47,40.13 38.72,40.13 3.49,0 6.75,-0.36 9.77,-1.04zm11.21 -45.99l-42.95 0c1.69,-12.25 10.42,-19.57 21.26,-19.57 11.97,0 21.4,7.6 21.69,19.57z"/>
  <path class="fil0" d="M464.53 96.11c0,-16.47 7.32,-21.4 19.15,-21.4l4.08 0 0 -16.62c-5.24,0 -23.23,12.54 -23.23,12.53l-16.05 0.2 0 66.13 16.05 0 0 -40.84z"/>
  <path class="fil1" d="M530.66 71.4l8.45 -12.39c-4.26,-1.43 -8.88,-2.18 -13.73,-2.18 -22.11,0 -39.57,15.63 -39.57,39.99 0,24.36 16.76,40.13 38.86,40.13 22.25,0 40.27,-15.77 40.27,-40.13 0,-9.6 -2.71,-17.84 -7.35,-24.3l-10.32 15.13c0.77,2.72 1.2,5.77 1.2,9.17 0,17.6 -11.83,26.19 -23.8,26.19 -12.11,0 -22.53,-8.59 -22.53,-26.19 0,-17.6 10.84,-26.05 22.95,-26.05 1.88,0 3.74,0.21 5.55,0.63z"/>
  <path class="fil2" d="M541.7 67.41c-0.34,-0.06 -2.52,-1.38 -3.01,-1.66 -1.61,-0.93 -2.21,0.01 -2.84,1.11 -0.8,1.38 -0.97,2.14 0.49,3.01l2.76 1.63c0.18,0.16 0.01,-0.05 0.16,0.18 -0.85,0.39 -2.15,1.2 -3.01,1.71 -0.51,0.3 -0.9,0.59 -0.98,1.32 -0.07,0.74 0.32,1.18 0.6,1.67 0.69,1.21 1.26,1.97 2.91,1.02 0.53,-0.3 2.44,-1.51 2.92,-1.64 0.1,1.24 -0.08,2.64 0.02,3.86 0.11,1.26 1.1,1.47 2.35,1.47 3.04,0 2.38,-1.45 2.39,-5.33 0.71,0.22 2.25,1.27 3.02,1.69 1.7,0.94 2.2,-0.08 2.87,-1.19 0.8,-1.33 0.86,-2.16 -0.57,-2.96 -0.98,-0.55 -1.93,-1.17 -2.88,-1.66 0.12,-0.17 -0.03,-0.02 0.2,-0.21 0.01,-0 0.16,-0.11 0.17,-0.11 2.97,-1.81 4.55,-1.84 3.03,-4.49 -0.6,-1.05 -1.21,-2.05 -2.85,-1.09l-2.96 1.68c-0.31,-3.25 1.05,-5.33 -2.41,-5.33 -3.16,-0 -2.24,1.58 -2.36,5.31z"/>
  <path class="fil2" d="M38.57 115.63l-4.05 9.26 27.14 -9.11 -10.52 -26.83 -4.36 8.73c-2.69,-0.85 -6.74,-3 -9.4,-4.23 -7.13,-3.29 -20.3,-8.91 -26.06,-13.33 -8.78,-6.74 -14.61,-24.64 -8.9,-39.51 2.66,-6.94 6.73,-11.6 11.71,-15.01 6.38,-4.37 12.86,-4.26 21.78,-4.26 17.46,0 35.47,0.43 52.85,-0.03 0.73,3.08 0.16,32.84 0.28,38.93 -2.83,-0.78 -7.14,-3.16 -9.91,-4.47l-28.56 -13.45 3.91 -8.94 -26.85 9.05c0.32,2.81 8.36,21.98 9.97,26.79 0.73,-0.67 -0.06,0.42 0.91,-1.1 0.82,-1.28 2.22,-5.65 3.73,-7.51 2.36,0.66 6.68,3.04 9.24,4.24 7.62,3.58 21.19,8.91 26.09,13.27 16.64,14.81 14.62,43.02 -2.61,54.51 -6.92,4.62 -12.55,4.31 -21.87,4.31 -17.67,0 -35.37,-0.08 -53.11,0.02l0.1 -39.05 38.47 17.73z"/>
  <g id="_1824210657984">
   <circle class="fil2" cx="35.96" cy="8.51" r="8.51"/>
   <circle class="fil2" cx="58.49" cy="8.51" r="8.51"/>
  </g>
 </g>
</svg>
