<svg width="110" height="21" viewBox="0 0 110 21" fill="none" xmlns="http://www.w3.org/2000/svg">
<path d="M0 6.61264C0 13.8203 10.5444 11.0396 10.5444 15.4946C10.5444 17.3958 9.08292 18.304 7.19229 18.2473C5.12905 18.1906 3.95467 16.97 3.84014 15.6368H0.229876C0.516212 19.0134 3.2102 21 7.02049 21C11.0897 21 13.8692 18.8432 13.8692 15.3812C13.8692 8.1168 3.29569 11.2098 3.29569 6.4425C3.29569 4.76819 4.58542 3.54761 6.87772 3.54761C9.1418 3.54761 10.2871 4.85287 10.4307 6.47045H13.9264C13.9264 2.97966 10.8606 0.822876 6.87772 0.822876C2.43668 0.822876 0.000806582 3.66104 0.000806582 6.61184L0 6.61264Z" fill="black"/>
<path d="M15.1855 20.9999H18.4522V12.2593C18.4522 9.3932 20.0282 7.9178 22.4351 7.9178C24.8137 7.9178 26.3889 9.3932 26.3889 12.2593V20.9999H29.6266V11.7768C29.6266 7.40656 26.8753 5.10758 23.3513 5.10758C21.3171 5.10758 20.3847 5.17389 18.4514 5.23859V0H15.1847V20.9999H15.1855Z" fill="black"/>
<path d="M30.4404 12.8553C30.4404 17.6793 33.7361 21 37.8335 21C40.4694 21 42.3609 19.7514 43.3643 18.4174V20.7444H46.6591V7.3659L43.3643 7.37788C42.3899 6.10059 40.5557 4.85205 37.8916 4.85205C33.7369 4.85205 30.4412 8.03051 30.4412 12.8545L30.4404 12.8553ZM43.3635 12.912C43.3635 16.2894 41.0421 18.1906 38.578 18.1906C36.1421 18.1906 33.7926 16.2327 33.7926 12.8553C33.7926 9.47875 36.1421 7.66226 38.578 7.66226C41.0421 7.66226 43.3635 9.56343 43.3635 12.912Z" fill="black"/>
<path d="M50.9034 12.7706C50.9034 9.45072 52.3931 8.45701 54.8008 8.45701H55.6315V5.1084C54.5644 5.1084 50.9034 7.63503 50.9034 7.63423L47.6367 7.67337V20.9999H50.9034V12.7706Z" fill="black"/>
<path d="M74.6758 10.3582V3.91661H78.286C80.8364 3.91661 81.9826 5.10843 81.9826 7.15179C81.9826 9.13842 80.8364 10.3582 78.286 10.3582H74.6758ZM85.3347 7.15179C85.3347 3.94537 83.0134 1.27734 78.286 1.27734H71.4091V20.9999H74.6758V12.9975H78.286C83.4723 12.9975 85.3347 9.9612 85.3347 7.15179Z" fill="#233E97"/>
<path fill-rule="evenodd" clip-rule="evenodd" d="M64.8088 20.7898L63.8192 18.1865C63.5135 18.2448 63.1811 18.276 62.8206 18.276C60.4138 18.276 58.5514 16.7151 58.3223 14.1325H70.3855C70.4718 13.5934 70.5001 13.0821 70.5001 12.5437C70.5001 7.94657 67.3197 4.85278 62.8206 4.85278C58.1505 4.85278 54.9403 8.00249 54.9403 12.912C54.9403 17.8214 58.2933 20.9999 62.8206 20.9999C63.5304 20.9999 64.1934 20.9264 64.8096 20.7898H64.8088ZM67.0898 11.522H58.3505C58.6941 9.05292 60.471 7.57752 62.677 7.57752C65.1129 7.57752 67.0326 9.10964 67.0898 11.522Z" fill="black"/>
<path d="M89.5644 12.7706C89.5644 9.45072 91.0542 8.45701 93.4618 8.45701H94.2926V5.1084C93.2255 5.1084 89.5644 7.63503 89.5644 7.63423L86.2978 7.67337V20.9999H89.5644V12.7706Z" fill="#233E97"/>
<path fill-rule="evenodd" clip-rule="evenodd" d="M103.021 7.78847L104.741 5.2914C103.874 5.00382 102.934 4.85205 101.948 4.85205C97.4496 4.85205 93.8958 8.00175 93.8958 12.9112C93.8958 17.8207 97.306 20.9992 101.804 20.9992C106.332 20.9992 109.999 17.8207 109.999 12.9112C109.999 10.9773 109.447 9.31659 108.505 8.01374L106.403 11.0636C106.56 11.6116 106.647 12.2275 106.647 12.9112C106.647 16.4587 104.24 18.1898 101.804 18.1898C99.3402 18.1898 97.2197 16.4587 97.2197 12.9112C97.2197 9.36372 99.4257 7.66146 101.891 7.66146C102.273 7.66146 102.653 7.703 103.021 7.78767V7.78847Z" fill="#233E97"/>
<path fill-rule="evenodd" clip-rule="evenodd" d="M105.269 6.98563C105.199 6.97365 104.756 6.70685 104.656 6.65013C104.33 6.46321 104.207 6.65333 104.079 6.8738C103.916 7.15258 103.882 7.30595 104.178 7.48089L104.739 7.8084C104.776 7.84036 104.741 7.79962 104.771 7.84435C104.598 7.92184 104.333 8.08639 104.157 8.18944C104.053 8.25094 103.973 8.30766 103.959 8.45624C103.944 8.60482 104.023 8.69349 104.081 8.79334C104.222 9.03617 104.338 9.19114 104.673 8.99943C104.781 8.93792 105.17 8.69508 105.267 8.66872C105.287 8.91795 105.251 9.20073 105.272 9.44756C105.294 9.70078 105.494 9.74472 105.75 9.74472C106.369 9.74552 106.233 9.45315 106.236 8.67112C106.38 8.71505 106.695 8.92594 106.851 9.01221C107.196 9.20153 107.298 8.99623 107.434 8.77257C107.597 8.50417 107.609 8.33722 107.318 8.17506C107.12 8.06402 106.925 7.94021 106.732 7.84036C106.756 7.80681 106.725 7.83636 106.772 7.79802C106.774 7.79722 106.805 7.77645 106.807 7.77486C107.412 7.4098 107.733 7.40501 107.424 6.8698C107.301 6.65812 107.178 6.45682 106.844 6.65013L106.241 6.98883C106.178 6.3346 106.455 5.91523 105.749 5.91443C105.107 5.91443 105.293 6.23315 105.269 6.98483V6.98563Z" fill="#A16AD4"/>
</svg>
