<svg width="60" height="61" viewBox="0 0 60 61" fill="none" xmlns="http://www.w3.org/2000/svg">
<path d="M40 15.5C40 18.1522 38.9464 20.6957 37.0711 22.5711C35.1957 24.4464 32.6522 25.5 30 25.5C27.3478 25.5 24.8043 24.4464 22.9289 22.5711C21.0536 20.6957 20 18.1522 20 15.5C20 12.8478 21.0536 10.3043 22.9289 8.42893C24.8043 6.55357 27.3478 5.5 30 5.5C32.6522 5.5 35.1957 6.55357 37.0711 8.42893C38.9464 10.3043 40 12.8478 40 15.5Z" fill="#009B54"/>
<path fill-rule="evenodd" clip-rule="evenodd" d="M41.25 55.5C37.125 55.5 35.0625 55.5 33.7825 54.2175C32.5 52.9375 32.5 50.875 32.5 46.75C32.5 42.625 32.5 40.5625 33.7825 39.2825C35.0625 38 37.125 38 41.25 38C45.375 38 47.4375 38 48.7175 39.2825C50 40.5625 50 42.625 50 46.75C50 50.875 50 52.9375 48.7175 54.2175C47.4375 55.5 45.375 55.5 41.25 55.5ZM46.17 44.865C46.4435 44.5915 46.5972 44.2205 46.5972 43.8337C46.5972 43.447 46.4435 43.076 46.17 42.8025C45.8965 42.529 45.5255 42.3753 45.1388 42.3753C44.752 42.3753 44.381 42.529 44.1075 42.8025L39.3075 47.6025L38.3925 46.69C38.2571 46.5546 38.0963 46.4471 37.9194 46.3739C37.7424 46.3006 37.5528 46.2628 37.3612 46.2628C37.1697 46.2628 36.9801 46.3006 36.8031 46.3739C36.6262 46.4471 36.4654 46.5546 36.33 46.69C36.1946 46.8254 36.0871 46.9862 36.0139 47.1631C35.9406 47.3401 35.9028 47.5297 35.9028 47.7213C35.9028 47.9128 35.9406 48.1024 36.0139 48.2794C36.0871 48.4563 36.1946 48.6171 36.33 48.7525L38.275 50.6975C38.4104 50.833 38.5711 50.9406 38.7481 51.0139C38.925 51.0873 39.1147 51.125 39.3062 51.125C39.4978 51.125 39.6875 51.0873 39.8644 51.0139C40.0414 50.9406 40.2021 50.833 40.3375 50.6975L46.17 44.865Z" fill="#009B54"/>
<path opacity="0.5" d="M36.1925 55.3C34.3775 55.4325 32.325 55.5 30 55.5C10 55.5 10 50.4625 10 44.25C10 38.0375 18.955 33 30 33C37.2 33 43.515 35.14 47.035 38.3525C45.745 38 43.935 38 41.25 38C37.125 38 35.0625 38 33.7825 39.2825C32.5 40.5625 32.5 42.625 32.5 46.75C32.5 50.875 32.5 52.9375 33.7825 54.2175C34.375 54.8125 35.1375 55.1275 36.1925 55.3Z" fill="#009B54"/>
</svg>
