<svg width="29" height="21" viewBox="0 0 29 21" fill="none" xmlns="http://www.w3.org/2000/svg">
<g clip-path="url(#clip0_1022_6862)">
<path d="M7.11762 20.763V10.1245L3.83923 7.10615L0.899414 5.43115V18.8856C0.899414 19.9244 1.73571 20.763 2.76492 20.763H7.11762Z" fill="#4285F4"/>
<path d="M22.042 20.7629H26.3947C27.427 20.7629 28.2602 19.9212 28.2602 18.8855V5.43115L24.9304 7.34966L22.042 10.1244V20.7629Z" fill="#34A853"/>
<path d="M7.11797 10.1245L6.67188 5.96771L7.11797 1.98926L14.5798 7.6214L22.0416 1.98926L22.5406 5.75291L22.0416 10.1245L14.5798 15.7566L7.11797 10.1245Z" fill="#EA4335"/>
<path d="M22.042 1.98934V10.1246L28.2602 5.43118V2.928C28.2602 0.606369 25.6268 -0.717127 23.7832 0.675205L22.042 1.98934Z" fill="#FBBC04"/>
<path d="M0.899414 5.43123L3.75928 7.58991L7.11762 10.1246V1.98939L5.37641 0.675255C3.52961 -0.717185 0.899414 0.606418 0.899414 2.92794V5.43123Z" fill="#C5221F"/>
</g>
<defs>
<clipPath id="clip0_1022_6862">
<rect width="27.4474" height="20.6927" fill="white" transform="translate(0.899414 0.106689)"/>
</clipPath>
</defs>
</svg>
