<svg width="22" height="21" viewBox="0 0 22 21" fill="none" xmlns="http://www.w3.org/2000/svg">
<g clip-path="url(#clip0_1022_6847)">
<path d="M16.3112 0.106445H5.40996C2.75382 0.106445 0.600586 2.28471 0.600586 4.97174V15.9998C0.600586 18.6868 2.75382 20.865 5.40996 20.865H16.3112C18.9674 20.865 21.1206 18.6868 21.1206 15.9998V4.97174C21.1206 2.28471 18.9674 0.106445 16.3112 0.106445Z" fill="url(#paint0_radial_1022_6847)"/>
<path d="M16.3112 0.106445H5.40996C2.75382 0.106445 0.600586 2.28471 0.600586 4.97174V15.9998C0.600586 18.6868 2.75382 20.865 5.40996 20.865H16.3112C18.9674 20.865 21.1206 18.6868 21.1206 15.9998V4.97174C21.1206 2.28471 18.9674 0.106445 16.3112 0.106445Z" fill="url(#paint1_radial_1022_6847)"/>
<path d="M10.8611 2.37695C8.68419 2.37695 8.41094 2.3866 7.55599 2.42593C6.70265 2.4655 6.12015 2.60214 5.61052 2.80267C5.08325 3.00977 4.63606 3.28684 4.19055 3.7377C3.74464 4.18847 3.47075 4.64086 3.26539 5.17401C3.0666 5.68973 2.93138 6.27925 2.89298 7.14211C2.85475 8.00708 2.84473 8.28359 2.84473 10.4859C2.84473 12.6881 2.85435 12.9637 2.89314 13.8286C2.93242 14.6918 3.06748 15.2811 3.26555 15.7967C3.47043 16.3301 3.74432 16.7825 4.18999 17.2331C4.63542 17.6842 5.08261 17.962 5.60948 18.1691C6.11951 18.3696 6.70209 18.5062 7.55527 18.5458C8.4103 18.5851 8.68331 18.5948 10.8601 18.5948C13.0372 18.5948 13.3096 18.5851 14.1646 18.5458C15.0179 18.5062 15.601 18.3696 16.1111 18.1691C16.6381 17.962 17.0846 17.6842 17.53 17.2331C17.9759 16.7825 18.2497 16.3301 18.4552 15.7969C18.6522 15.2811 18.7875 14.6917 18.8276 13.8287C18.866 12.9638 18.876 12.6881 18.876 10.4859C18.876 8.28359 18.866 8.00724 18.8276 7.14227C18.7875 6.279 18.6522 5.68982 18.4552 5.17426C18.2497 4.64086 17.9759 4.18847 17.53 3.7377C17.0842 3.28668 16.6383 3.0096 16.1106 2.80275C15.5996 2.60214 15.0168 2.46542 14.1634 2.42593C13.3084 2.3866 13.0362 2.37695 10.8586 2.37695H10.8611ZM10.142 3.83825C10.3554 3.83792 10.5936 3.83825 10.8611 3.83825C13.0013 3.83825 13.2549 3.84603 14.1001 3.88487C14.8816 3.92104 15.3058 4.05313 15.5884 4.16414C15.9625 4.31107 16.2291 4.48679 16.5095 4.77068C16.7901 5.05449 16.9637 5.32476 17.1093 5.70319C17.2191 5.98863 17.3498 6.41775 17.3854 7.20836C17.4238 8.06319 17.4321 8.31991 17.4321 10.484C17.4321 12.6481 17.4238 12.9049 17.3854 13.7596C17.3496 14.5503 17.2191 14.9794 17.1093 15.2649C16.9641 15.6433 16.7901 15.9128 16.5095 16.1964C16.229 16.4802 15.9626 16.6559 15.5884 16.8029C15.3061 16.9144 14.8816 17.0462 14.1001 17.0823C13.2551 17.1212 13.0013 17.1296 10.8611 17.1296C8.72074 17.1296 8.46705 17.1212 7.62212 17.0823C6.8406 17.0458 6.41641 16.9137 6.13362 16.8027C5.75961 16.6557 5.49237 16.4801 5.21182 16.1963C4.93127 15.9125 4.75766 15.6428 4.61201 15.2642C4.50228 14.9787 4.37154 14.5496 4.33595 13.759C4.29756 12.9042 4.28986 12.6474 4.28986 10.482C4.28986 8.31651 4.29756 8.06116 4.33595 7.20633C4.3717 6.41572 4.50228 5.9866 4.61201 5.70076C4.75733 5.32232 4.93127 5.05206 5.2119 4.76825C5.49253 4.48444 5.75961 4.30872 6.1337 4.16146C6.41625 4.04997 6.8406 3.9182 7.62212 3.88187C8.36156 3.84806 8.64812 3.83792 10.142 3.83622V3.83825ZM15.1398 5.18464C14.6088 5.18464 14.1779 5.62008 14.1779 6.15737C14.1779 6.69458 14.6088 7.13043 15.1398 7.13043C15.6708 7.13043 16.1017 6.69458 16.1017 6.15737C16.1017 5.62016 15.6708 5.18431 15.1398 5.18431V5.18464ZM10.8611 6.32157C8.58784 6.32157 6.74473 8.18612 6.74473 10.4859C6.74473 12.7856 8.58784 14.6493 10.8611 14.6493C13.1344 14.6493 14.9769 12.7856 14.9769 10.4859C14.9769 8.1862 13.1342 6.32157 10.8609 6.32157H10.8611ZM10.8611 7.78287C12.3367 7.78287 13.533 8.99295 13.533 10.4859C13.533 11.9786 12.3367 13.1889 10.8611 13.1889C9.38548 13.1889 8.18923 11.9786 8.18923 10.4859C8.18923 8.99295 9.3854 7.78287 10.8611 7.78287Z" fill="white"/>
</g>
<defs>
<radialGradient id="paint0_radial_1022_6847" cx="0" cy="0" r="1" gradientUnits="userSpaceOnUse" gradientTransform="translate(6.05121 22.4639) rotate(-90) scale(20.5733 18.9149)">
<stop stop-color="#FFDD55"/>
<stop offset="0.1" stop-color="#FFDD55"/>
<stop offset="0.5" stop-color="#FF543E"/>
<stop offset="1" stop-color="#C837AB"/>
</radialGradient>
<radialGradient id="paint1_radial_1022_6847" cx="0" cy="0" r="1" gradientUnits="userSpaceOnUse" gradientTransform="translate(-2.83659 1.60179) rotate(78.8078) scale(9.19234 37.4886)">
<stop stop-color="#3771C8"/>
<stop offset="0.128" stop-color="#3771C8"/>
<stop offset="1" stop-color="#6600FF" stop-opacity="0"/>
</radialGradient>
<clipPath id="clip0_1022_6847">
<rect width="20.6393" height="20.6393" fill="white" transform="translate(0.600586 0.106445)"/>
</clipPath>
</defs>
</svg>
