<svg width="22" height="22" viewBox="0 0 22 22" fill="none" xmlns="http://www.w3.org/2000/svg">
<path d="M18.2057 3.98332C16.2066 2.02111 13.5443 0.941895 10.715 0.941895C4.875 0.941895 0.122879 5.59513 0.122879 11.3136C0.122879 13.1403 0.609542 14.925 1.53516 16.4994L0.0322266 21.8721L5.64794 20.4285C7.19381 21.2554 8.9353 21.6899 10.7102 21.6899H10.715C16.5501 21.6899 21.4072 17.0367 21.4072 11.3182C21.4072 8.54779 20.2049 5.94553 18.2057 3.98332ZM10.715 19.9426C9.13091 19.9426 7.58027 19.5268 6.23002 18.7419L5.91035 18.5551L2.58005 19.41L3.46749 16.2284L3.25756 15.9014C2.37489 14.5279 1.91208 12.9441 1.91208 11.3136C1.91208 6.56222 5.86264 2.69387 10.7197 2.69387C13.0719 2.69387 15.281 3.59088 16.9414 5.22138C18.6018 6.85188 19.6228 9.01498 19.618 11.3182C19.618 16.0743 15.5673 19.9426 10.715 19.9426ZM15.5434 13.486C15.281 13.3552 13.9785 12.7292 13.7351 12.6451C13.4918 12.5563 13.3153 12.5143 13.1387 12.7759C12.9622 13.0375 12.4564 13.6168 12.299 13.7944C12.1463 13.9672 11.9889 13.9906 11.7265 13.8598C10.171 13.0982 9.15 12.5002 8.12419 10.7763C7.85223 10.3185 8.39615 10.3512 8.9019 9.36071C8.98778 9.18784 8.94484 9.03834 8.87804 8.90753C8.81124 8.77672 8.28164 7.50128 8.06217 6.9827C7.84746 6.47813 7.62799 6.54821 7.46576 6.53886C7.31309 6.52952 7.13655 6.52952 6.96002 6.52952C6.78348 6.52952 6.49721 6.59493 6.25388 6.85188C6.01055 7.11351 5.32826 7.73955 5.32826 9.01498C5.32826 10.2904 6.27773 11.5238 6.40656 11.6967C6.54015 11.8695 8.2721 14.4858 10.9297 15.6117C12.6091 16.3219 13.2676 16.3826 14.1073 16.2611C14.6178 16.1864 15.6722 15.6351 15.8917 15.0278C16.1112 14.4204 16.1112 13.9018 16.0444 13.7944C15.9824 13.6776 15.8058 13.6122 15.5434 13.486Z" fill="#25D366"/>
</svg>
